<svg xmlns="http://www.w3.org/2000/svg" viewBox="0 0 72 72" style="enable-background:new 0 0 72 72" xml:space="preserve"><linearGradient id="a" gradientUnits="userSpaceOnUse" x1="35.961" y1="64.881" x2="35.961" y2="8.846" gradientTransform="matrix(1 0 0 -1 0 74)"><stop offset="0" style="stop-color:#2aabee"/><stop offset="1" style="stop-color:#229ed9"/></linearGradient><path d="M6.792 33.254C24.916 25.366 37.03 20.107 43.135 17.57c17.28-7.231 20.848-8.452 23.195-8.452.47 0 1.69.094 2.442.751.657.47.845 1.221.845 1.69.094.47.188 1.597.094 2.442-.939 9.861-4.977 33.714-7.043 44.795-.845 4.696-2.63 6.198-4.226 6.386-3.663.376-6.386-2.348-9.86-4.695-5.447-3.569-8.546-5.823-13.9-9.297-6.103-4.039-2.159-6.292 1.316-9.955.939-.939 16.81-15.4 17.185-16.716 0-.187.094-.75-.282-1.127-.375-.375-.939-.187-1.314-.093-.564.093-9.297 5.916-26.295 17.373-2.442 1.69-4.696 2.535-6.762 2.535-2.253-.094-6.48-1.22-9.672-2.254-3.85-1.502-6.95-2.16-6.668-4.32.188-1.126 1.69-2.253 4.602-3.38z" style="fill:url(#a)"/></svg>